# xmcd
#
# Track frame offsets: 
#        182
#        7682
#        29087
#        51417
#        74562
#        92157
#        103010
#        123700
#        147057
#        169755
#        192152
#        213200
#        233192
#        251275
#        268947
#        278957
#
# Disc length: 3955 seconds
#
# Revision: 2
# Processed by: cddbd v1.5.1PL0 Copyright (c) Steve Scherf et al.
# Submitted via: ExactAudioCopy v0.90b4
#
DISCID=ec0f7110
DTITLE=Playa - Cheers 2 U
DYEAR=1998
DGENRE=R&B
TTITLE0=Intro - Interlude (feat. Magoo)
TTITLE1=Don't Stop The Music
TTITLE2=All The Way
TTITLE3=Everybody Wanna Luv Somebody
TTITLE4=Together
TTITLE5=Derby City - Interlude (feat. Magoo)
TTITLE6=I-65
TTITLE7=Cheers 2 U
TTITLE8=Ms. Parker (feat. Missy "Misdemeanor" Elliott)
TTITLE9=Top Of The World
TTITLE10=One Man Woman (feat. Aaliyah)
TTITLE11=I'll B 2 C U
TTITLE12=Push
TTITLE13=Buggin' Over You
TTITLE14=Gospel Interlude
TTITLE15=I Gotta Know (feat. Foxy Brown)
EXTD=
EXTT0=
EXTT1=
EXTT2=
EXTT3=
EXTT4=
EXTT5=
EXTT6=
EXTT7=
EXTT8=
EXTT9=
EXTT10=
EXTT11=
EXTT12=
EXTT13=
EXTT14=
EXTT15=
PLAYORDER=
